<?xml version="1.0" encoding="UTF-8"?>
<svg id="Capa_1" data-name="Capa 1" xmlns="http://www.w3.org/2000/svg" viewBox="0 0 16 16">
  <path d="m1,2.83c.88-.37,2.15-.77,3.39-.89,1.33-.13,2.46.06,3.11.75v9.75c-.93-.53-2.12-.6-3.21-.49-1.18.12-2.37.46-3.29.81,0,0,0-9.92,0-9.92Zm7.5-.14c.65-.69,1.78-.89,3.11-.75,1.23.12,2.5.52,3.39.89v9.92c-.92-.35-2.11-.69-3.29-.81-1.09-.11-2.28-.04-3.21.49V2.69Zm-.5-.9c-.99-.85-2.41-.97-3.71-.84-1.51.15-3.04.67-3.99,1.11C.11,2.13,0,2.3,0,2.5v11c0,.28.22.5.5.5.07,0,.14-.02.21-.04.88-.4,2.3-.88,3.68-1.02,1.41-.14,2.59.09,3.22.88.17.22.49.25.7.08.03-.02.05-.05.08-.08.63-.79,1.81-1.02,3.22-.88,1.38.14,2.8.62,3.68,1.02.25.11.55,0,.66-.25.03-.06.04-.14.04-.21V2.5c0-.2-.11-.37-.29-.45-.95-.43-2.48-.95-3.99-1.11-1.3-.13-2.73,0-3.71.84Z"/>
</svg>